:SAMPLES-PER-SECOND 30
:FULLY-SPECIFIED
:DEGREES
229
root  26.3959 38.0532 -29.0235 97.5265 87.8159 102.843
RightUpLeg  -8.31225 -10.615 -3.9935
RightLeg  39.4122 -2.38112 -2.38428
RightFoot  -20.649 -0.110142 0.337636
RightToes  0.000482159 0.542163 -0.142577
Spine  39.2367 -2.26149 7.32112
Spine1  16.0412 0.447643 -0.837451
HEad  23.9455 17.1737 -9.85328
LeftShoulder1  9.41729 -14.3167 -46.091
LeftArm  -9.14601 31.9823 -19.8584
LeftForeArm  18.1096 -13.8857 -4.29005
LeftHand  -0.25398 0.0180481 5.50724
RightShoulder  5.98608 10.5679 36.5434
RightArm  2.86284 -0.135261 30.1446
RightForeArm  -13.2193 30.3795 7.32066
RightHand  -3.05329 7.6403 -27.1253
LeftUpLeg  -18.153 5.27633 4.13366
LeftLeg  -4.34345 24.6886 -8.30348
LeftFoot  4.12554 1.17131 -8.80424
LeftToes  1.06247e-005 4.65855e-005 -8.18501e-006
230
root  25.434 38.4731 -28.7786 117.659 86.8766 123.521
RightUpLeg  -8.02836 -12.9927 -4.43389
RightLeg  36.6906 -1.69806 -1.63152
RightFoot  -17.797 -0.181449 -1.11692
RightToes  0.000482159 0.542163 -0.142577
Spine  38.5724 -2.14356 7.02336
Spine1  15.7145 0.290371 -0.432564
HEad  24.9707 17.3686 -8.84507
LeftShoulder1  9.35094 -14.2043 -46.056
LeftArm  -10.0165 31.1502 -20.8129
LeftForeArm  18.4445 -14.6611 -4.0921
LeftHand  -0.25398 0.0180481 5.50724
RightShoulder  6.01886 10.5538 36.8115
RightArm  3.75117 -1.49447 30.2217
RightForeArm  -14.5886 29.2305 7.09172
RightHand  -3.01432 7.54999 -26.9724
LeftUpLeg  -17.4595 6.29977 3.00795
LeftLeg  0.262127 22.9924 -6.67051
LeftFoot  4.08783 0.985533 -7.44522
LeftToes  1.06247e-005 4.65855e-005 -8.18501e-006
231
root  24.5225 38.928 -28.5934 121.134 85.9808 127.359
RightUpLeg  -7.68864 -14.8086 -4.91674
RightLeg  33.5776 -0.911353 -0.914613
RightFoot  -14.445 -0.163222 -2.33024
RightToes  0.000482159 0.542163 -0.142577
Spine  37.782 -1.87628 6.67211
Spine1  15.2989 0.348569 -0.313402
HEad  25.5601 17.5153 -8.1589
LeftShoulder1  9.3091 -14.0821 -46.1717
LeftArm  -10.2149 29.7912 -21.4137
LeftForeArm  19.6478 -16.8746 -3.86214
LeftHand  -0.25398 0.0180481 5.50724
RightShoulder  6.05934 10.5755 37.0266
RightArm  4.93249 -3.17957 30.4452
RightForeArm  -16.0004 28.4815 6.96989
RightHand  -2.95108 7.46459 -26.6005
LeftUpLeg  -17.1318 12.0665 0.245721
LeftLeg  6.95652 16.1208 -3.04896
LeftFoot  2.57006 0.843493 -7.04238
LeftToes  1.06247e-005 4.65855e-005 -8.18501e-006
232
root  23.634 39.3646 -28.466 122.698 85.0224 129.014
RightUpLeg  -7.4383 -16.4373 -5.57442
RightLeg  30.1877 0.210496 -0.11622
RightFoot  -11.0812 -0.0693499 -2.67793
RightToes  0.000482159 0.542163 -0.142577
Spine  36.7814 -1.72357 6.34412
Spine1  14.8598 0.431859 -0.565818
HEad  25.9867 17.8103 -7.75533
LeftShoulder1  9.19988 -13.9102 -46.077
LeftArm  -10.5035 28.2881 -22.0663
LeftForeArm  21.411 -20.3143 -3.66655
LeftHand  -0.25398 0.0180481 5.50724
RightShoulder  6.04936 10.5273 37.1013
RightArm  6.37693 -5.16962 30.8689
RightForeArm  -16.8538 28.2673 6.95616
RightHand  -2.87993 7.31444 -26.2805
LeftUpLeg  -16.8003 18.9518 -2.86642
LeftLeg  13.002 7.95939 0.646311
LeftFoot  0.79151 0.737258 -6.97684
LeftToes  1.06247e-005 4.65855e-005 -8.18501e-006
233
root  22.7617 39.7185 -28.3867 124.236 84.0013 130.635
RightUpLeg  -7.20145 -18.1607 -6.29025
RightLeg  26.9444 1.37366 0.515853
RightFoot  -8.01858 0.0407862 -3.22374
RightToes  0.000482159 0.542163 -0.142577
Spine  35.7126 -1.68789 6.13302
Spine1  14.2032 0.502209 -1.03318
HEad  26.4952 18.0521 -7.25433
LeftShoulder1  9.03394 -13.7598 -45.6256
LeftArm  -11.4376 26.8494 -22.8216
LeftForeArm  23.6282 -24.457 -3.95754
LeftHand  -0.25398 0.0180481 5.50724
RightShoulder  6.01143 10.4097 37.1902
RightArm  8.12414 -7.47815 31.2922
RightForeArm  -16.9874 28.4545 7.00901
RightHand  -2.80238 7.00139 -26.2176
LeftUpLeg  -15.3902 19.4766 -3.44017
LeftLeg  18.3724 6.50994 2.9668
LeftFoot  -0.980043 0.606607 -6.61421
LeftToes  1.06247e-005 4.65855e-005 -8.18501e-006
234
root  21.8975 39.9643 -28.3484 125.133 83.1331 131.619
RightUpLeg  -7.14602 -19.7909 -6.84477
RightLeg  24.1964 2.39836 0.97556
RightFoot  -5.30322 0.179522 -4.09331
RightToes  0.000482159 0.542163 -0.142577
Spine  34.5464 -1.65166 5.9756
Spine1  13.5427 0.613724 -1.5144
HEad  27.0703 18.2145 -6.65823
LeftShoulder1  8.89656 -13.6712 -45.1463
LeftArm  -12.7759 25.4764 -23.3263
LeftForeArm  26.3222 -29.0767 -4.85903
LeftHand  -0.25398 0.0180481 5.50724
RightShoulder  5.98584 10.3255 37.2658
RightArm  10.0663 -9.95377 31.6511
RightForeArm  -16.5113 28.7985 7.07321
RightHand  -2.76348 6.76833 -26.3381
LeftUpLeg  -13.0224 16.2355 -2.50131
LeftLeg  23.4898 8.70147 4.43835
LeftFoot  -2.87442 0.472103 -6.14658
LeftToes  1.06247e-005 4.65855e-005 -8.18501e-006
235
root  21.0324 40.105 -28.3604 127.365 82.7547 133.509
RightUpLeg  -7.67889 -20.4801 -6.84948
RightLeg  21.7223 2.72329 1.4845
RightFoot  -2.97043 0.303312 -4.43146
RightToes  0.000482159 0.542163 -0.142577
Spine  32.6545 -1.67973 6.16609
Spine1  13.2944 0.765952 -2.061
HEad  27.6766 18.6096 -6.19836
LeftShoulder1  8.83449 -13.607 -44.9932
LeftArm  -13.8674 24.1311 -23.2804
LeftForeArm  29.014 -34.2125 -5.94757
LeftHand  -0.25398 0.0180481 5.50724
RightShoulder  5.98306 10.3477 37.1794
RightArm  11.9718 -12.3611 32.034
RightForeArm  -15.8047 29.0868 7.11295
RightHand  -2.79649 6.85952 -26.4508
LeftUpLeg  -10.8424 13.9351 -1.58124
LeftLeg  28.0355 9.10904 5.54702
LeftFoot  -4.80128 0.385267 -6.25491
LeftToes  1.06247e-005 4.65855e-005 -8.18501e-006
236
root  20.14 40.1375 -28.4326 132.987 83.0088 138.254
RightUpLeg  -8.93821 -19.3617 -6.11058
RightLeg  19.3541 1.34872 2.0582
RightFoot  -0.860449 0.413293 -4.5544
RightToes  0.000482159 0.542163 -0.142577
Spine  29.8891 -1.89535 7.11388
Spine1  13.4413 0.935859 -2.87332
HEad  28.3433 19.3946 -5.83988
LeftShoulder1  8.81546 -13.5372 -45.0837
LeftArm  -14.9698 22.7868 -22.8207
LeftForeArm  31.7374 -39.5778 -7.24672
LeftHand  -0.25398 0.0180481 5.50724
RightShoulder  6.00808 10.4596 37.0174
RightArm  13.7431 -14.5436 32.3717
RightForeArm  -15.4495 29.1301 7.10721
RightHand  -2.79448 6.91259 -26.3236
LeftUpLeg  -8.99322 12.073 -0.231522
LeftLeg  31.7612 8.48186 5.96462
LeftFoot  -6.66994 0.315129 -6.73179
LeftToes  1.06247e-005 4.65855e-005 -8.18501e-006
237
root  19.1829 40.0704 -28.5506 140.316 83.5798 144.774
RightUpLeg  -10.5673 -17.9452 -4.9746
RightLeg  17.4883 -0.359263 2.45642
RightFoot  1.2939 0.591324 -5.24636
RightToes  0.000482159 0.542163 -0.142577
Spine  27.2895 -2.16755 8.3685
Spine1  13.5488 1.07832 -3.74476
HEad  29.011 20.4001 -5.47055
LeftShoulder1  8.78183 -13.4717 -45.085
LeftArm  -16.0632 21.383 -22.4248
LeftForeArm  34.1959 -44.6153 -8.67972
LeftHand  -0.25398 0.0180481 5.50724
RightShoulder  6.06927 10.6135 36.9823
RightArm  15.5192 -16.4068 32.5026
RightForeArm  -15.8715 28.7108 7.02153
RightHand  -2.68027 6.55519 -26.0146
LeftUpLeg  -6.81471 10.7673 1.28634
LeftLeg  34.3475 7.68276 5.9653
LeftFoot  -8.22114 0.234212 -6.76892
LeftToes  1.06247e-005 4.65855e-005 -8.18501e-006
238
root  18.149 39.9263 -28.694 145.775 84.0989 149.987
RightUpLeg  -12.1378 -17.0595 -4.12799
RightLeg  16.4597 -1.35648 2.7282
RightFoot  3.31544 0.770464 -5.8161
RightToes  0.000482159 0.542163 -0.142577
Spine  25.7102 -2.31176 9.0214
Spine1  13.4064 1.0689 -4.07739
HEad  29.6262 21.4872 -5.18675
LeftShoulder1  8.71333 -13.4075 -44.8953
LeftArm  -17.107 19.8897 -22.2117
LeftForeArm  36.3702 -48.9617 -10.1449
LeftHand  -0.25398 0.0180481 5.50724
RightShoulder  6.14928 10.7713 37.0647
RightArm  17.3233 -17.9351 32.4862
RightForeArm  -17.0099 27.7331 6.83158
RightHand  -2.63422 6.32039 -26.0708
LeftUpLeg  -3.67837 10.036 2.5266
LeftLeg  35.4722 6.82453 5.55414
LeftFoot  -8.97728 0.195747 -6.86134
LeftToes  1.06247e-005 4.65855e-005 -8.18501e-006
239
root  17.0504 39.7356 -28.8615 149.261 84.4844 153.63
RightUpLeg  -13.4798 -16.3926 -3.79383
RightLeg  15.7017 -1.94963 3.11753
RightFoot  5.10249 0.860051 -5.7047
RightToes  0.000482159 0.542163 -0.142577
Spine  24.768 -2.39588 8.97946
Spine1  13.2416 0.830707 -3.82643
HEad  30.2225 22.6034 -5.01453
LeftShoulder1  8.61905 -13.3162 -44.6396
LeftArm  -18.013 18.3782 -21.8142
LeftForeArm  38.2263 -52.622 -11.6106
LeftHand  -0.25398 0.0180481 5.50724
RightShoulder  6.21077 10.8869 37.1432
RightArm  18.7563 -19.2779 32.5448
RightForeArm  -18.4143 26.417 6.57538
RightHand  -2.81885 6.81508 -26.7386
LeftUpLeg  0.341473 9.65768 3.44571
LeftLeg  34.4506 5.16674 4.17034
LeftFoot  -9.42047 0.1913 -8.14909
LeftToes  1.06247e-005 4.65855e-005 -8.18501e-006
240
root  15.8933 39.5576 -29.0532 152.209 84.7135 156.805
RightUpLeg  -14.381 -15.4659 -3.84011
RightLeg  14.0768 -2.89531 3.69426
RightFoot  7.41876 1.04437 -5.9782
RightToes  0.000482159 0.542163 -0.142577
Spine  23.8902 -2.54257 8.56355
Spine1  13.1641 0.418797 -3.65058
HEad  30.5136 23.3972 -4.77469
LeftShoulder1  8.48915 -13.1813 -44.307
LeftArm  -18.7451 16.9537 -21.0906
LeftForeArm  39.5796 -55.692 -13.0819
LeftHand  -0.25398 0.0180481 5.50724
RightShoulder  6.24337 10.9315 37.2327
RightArm  19.4383 -20.578 32.746
RightForeArm  -19.6 25.1543 6.32749
RightHand  -3.01046 7.40843 -27.2268
LeftUpLeg  4.71144 9.51705 3.93193
LeftLeg  30.5047 2.81711 2.15652
LeftFoot  -11.1768 0.0793771 -9.61882
LeftToes  1.06247e-005 4.65855e-005 -8.18501e-006
241
root  14.6485 39.437 -29.2478 152.411 84.6122 157.208
RightUpLeg  -14.6453 -13.9511 -4.46789
RightLeg  11.0233 -4.55298 4.32644
RightFoot  10.664 1.31435 -6.38908
RightToes  0.000482159 0.542163 -0.142577
Spine  23.2972 -2.64247 7.34553
Spine1  12.905 -0.156901 -3.6033
HEad  29.7317 23.165 -4.45899
LeftShoulder1  8.3106 -13.0141 -43.7883
LeftArm  -19.4896 15.6233 -20.4065
LeftForeArm  40.403 -58.1652 -14.4928
LeftHand  -0.25398 0.0180481 5.50724
RightShoulder  6.27371 10.9429 37.4028
RightArm  19.5646 -21.7104 32.9663
RightForeArm  -20.1929 24.1544 6.12608
RightHand  -2.85492 7.06173 -26.5483
LeftUpLeg  8.4074 9.83784 3.51023
LeftLeg  24.2854 1.04214 0.85597
LeftFoot  -14.6549 -0.160598 -8.88626
LeftToes  1.06247e-005 4.65855e-005 -8.18501e-006
242
root  13.2754 39.3635 -29.4074 148.145 83.8112 152.942
RightUpLeg  -14.4576 -11.919 -6.19453
RightLeg  6.67831 -7.04611 4.98275
RightFoot  13.4469 0.939849 -3.87657
RightToes  0.000482159 0.542163 -0.142577
Spine  23.2453 -2.49219 4.56481
Spine1  12.3153 -0.975542 -2.80288
HEad  27.5081 21.3626 -4.29194
LeftShoulder1  8.12813 -12.8513 -43.2231
LeftArm  -20.3328 14.2661 -19.9528
LeftForeArm  40.734 -59.864 -15.6183
LeftHand  -0.25398 0.0180481 5.50724
RightShoulder  6.31996 10.9579 37.6683
RightArm  19.2142 -22.4527 33.1307
RightForeArm  -19.7183 23.3285 5.98903
RightHand  -2.42878 5.94443 -24.8791
LeftUpLeg  9.71566 10.5312 1.93412
LeftLeg  18.7813 0.828037 0.509865
LeftFoot  -17.7144 -0.207153 -5.60365
LeftToes  1.06247e-005 4.65855e-005 -8.18501e-006
243
root  11.8371 39.3136 -29.5106 142.733 82.2552 147.047
RightUpLeg  -14.2341 -11.1271 -8.66099
RightLeg  1.75647 -9.2426 5.62098
RightFoot  13.9257 -0.497928 2.71196
RightToes  0.000482159 0.542163 -0.142577
Spine  23.2262 -2.08686 0.674943
Spine1  11.5793 -1.8411 -1.25527
HEad  24.6376 18.1217 -4.3642
LeftShoulder1  8.02275 -12.7515 -42.9063
LeftArm  -20.849 12.7682 -19.407
LeftForeArm  40.2854 -60.3434 -16.0179
LeftHand  -0.25398 0.0180481 5.50724
RightShoulder  6.36822 10.9229 38.0932
RightArm  17.4606 -22.8772 33.3593
RightForeArm  -17.6842 22.4714 5.94236
RightHand  -2.10452 5.07189 -23.4176
LeftUpLeg  7.61391 10.8325 -0.421047
LeftLeg  17.1808 1.64383 0.180772
LeftFoot  -18.4218 -0.031423 -2.21216
LeftToes  1.06247e-005 4.65855e-005 -8.18501e-006
